<svg xmlns="http://www.w3.org/2000/svg" viewBox="0 0 770.36 638.53"><defs><style>.cls-1{fill:#001b9b;}</style></defs><title>Branco</title><g id="Camada_2" data-name="Camada 2"><g id="Camada_1-2" data-name="Camada 1"><path class="cls-1" d="M348.79,531.43C357,501.22,368,455.9,377.63,425.69H534.17c19.23,0,38.45-5.49,38.45-28.84,0-22-17.85-23.34-35.7-23.34H388.61c8.24-35.7,13.74-57.68,22-93.38h162c19.23,1.37,35.7-9.61,35.7-30.21S593.22,225.2,574,225.2h-151c8.24-34.33,17.86-79.64,27.47-111.23h184c39.82,0,64.54,23.35,81,57.68,17.86,41.19,13.74,81-13.73,116.72-9.61,12.36-23.34,22-37.07,34.33,1.37,1.37,2.74,5.49,4.12,8.24,33,41.2,30.21,85.14,9.61,130.45-20.6,43.94-56.3,68.66-103,70-74.15,1.37-222.46,1.37-226.58,0"/><polygon class="cls-1" points="153.8 0 770.36 0 756.63 78.27 137.32 78.27 153.8 0"/><polygon class="cls-1" points="16.48 567.13 0 638.53 642.65 638.53 656.39 567.13 16.48 567.13"/><polygon class="cls-1" points="127.71 113.97 26.09 531.43 315.83 531.43 340.55 424.32 182.63 422.94 196.37 373.51 347.42 373.51 372.13 280.13 219.71 280.13 232.07 223.83 383.12 223.83 409.21 113.97 127.71 113.97"/></g></g></svg>